<svg xmlns="http://www.w3.org/2000/svg" version="1.1" xmlns:xlink="http://www.w3.org/1999/xlink" xmlns:svgjs="http://svgjs.dev/svgjs" width="164" height="100" viewBox="0 0 164 50"><rect width="164" height="50" fill="#5b3892"></rect><g transform="matrix(0.6666666666666666,0,0,0.6666666666666666,249.39393939393938,438.5856950067477)"><svg viewBox="0 0 164 50" data-background-color="#5b3892" preserveAspectRatio="xMidYMid meet" height="935" width="1500" xmlns="http://www.w3.org/2000/svg" xmlns:xlink="http://www.w3.org/1999/xlink"><g id="tight-bounds" transform="matrix(1,0,0,1,0.2400000000000091,-0.09999999999999432)"><svg viewBox="0 0 395.52 247.2" height="247.2" width="395.52"><g><svg></svg></g><g><svg viewBox="0 0 395.52 247.2" height="247.2" width="395.52"><mask id="89ebc118-a8cf-4442-8397-b903e57c0168"><rect width="640" height="400" fill="white"></rect><rect width="348.05760000000004" height="92.16163906738764" fill="black" y="77.51918046630618" x="23.731199999999973" id="transform-me"></rect></mask><g transform="matrix(1,0,0,1,39.55199999999999,92.29832766338406)"><svg viewBox="0 0 316.416 62.60334467323187" height="62.60334467323187" width="316.416"><g><svg viewBox="0 0 316.416 62.60334467323187" height="62.60334467323187" width="316.416"><g><svg viewBox="0 0 316.416 62.60334467323187" height="62.60334467323187" width="316.416"><g><svg viewBox="0 0 316.416 62.60334467323187" height="62.60334467323187" width="316.416"><g id="textblocktransform"><svg viewBox="0 0 316.416 62.60334467323187" height="62.60334467323187" width="316.416" id="textblock"><g><svg viewBox="0 0 316.416 62.60334467323187" height="62.60334467323187" width="316.416"><g transform="matrix(1,0,0,1,0,0)"><svg width="316.416" viewBox="3.6 -34.8 223.38 44.199999999999996" height="62.60334467323187" data-palette-color="#5ac5e5"><path d="M13.7 0L3.6 0 3.6-32.5 13.2-32.5Q16.9-32.5 19.98-31.6 23.05-30.7 25.25-28.75 27.45-26.8 28.68-23.75 29.9-20.7 29.9-16.4L29.9-16.4Q29.9-12.1 28.7-9 27.5-5.9 25.33-3.9 23.15-1.9 20.18-0.95 17.2 0 13.7 0L13.7 0ZM12.2-25.6L12.2-6.9 12.7-6.9Q14.45-6.9 16-7.33 17.55-7.75 18.68-8.8 19.8-9.85 20.45-11.7 21.1-13.55 21.1-16.4L21.1-16.4Q21.1-19.25 20.45-21.05 19.8-22.85 18.68-23.85 17.55-24.85 16-25.23 14.45-25.6 12.7-25.6L12.7-25.6 12.2-25.6ZM46.6 0.6L46.6 0.6Q43.85 0.6 41.5-0.28 39.15-1.15 37.42-2.83 35.7-4.5 34.7-6.95 33.7-9.4 33.7-12.5L33.7-12.5Q33.7-15.55 34.72-17.98 35.75-20.4 37.42-22.1 39.1-23.8 41.25-24.7 43.4-25.6 45.7-25.6L45.7-25.6Q48.45-25.6 50.5-24.65 52.55-23.7 53.9-22.05 55.25-20.4 55.92-18.2 56.6-16 56.6-13.5L56.6-13.5Q56.6-12.35 56.47-11.35 56.35-10.35 56.25-9.9L56.25-9.9 42-9.9Q42.6-7.65 44.15-6.78 45.7-5.9 47.8-5.9L47.8-5.9Q49.1-5.9 50.32-6.28 51.55-6.65 52.9-7.4L52.9-7.4 55.7-2.3Q53.65-0.85 51.17-0.13 48.7 0.6 46.6 0.6ZM41.9-15.5L41.9-15.5 49.3-15.5Q49.3-16.95 48.57-18.03 47.85-19.1 45.9-19.1L45.9-19.1Q44.45-19.1 43.37-18.25 42.3-17.4 41.9-15.5ZM67.3 0.6L67.3 0.6Q65.55 0.6 64.15-0.03 62.75-0.65 61.77-1.7 60.8-2.75 60.3-4.15 59.8-5.55 59.8-7.1L59.8-7.1Q59.8-11 63-13.23 66.2-15.45 73.4-16.2L73.4-16.2Q73.1-18.8 69.9-18.8L69.9-18.8Q68.55-18.8 67.05-18.28 65.55-17.75 63.6-16.7L63.6-16.7 60.6-22.3Q63.25-23.9 65.95-24.75 68.65-25.6 71.6-25.6L71.6-25.6Q76.45-25.6 79.22-22.83 82-20.05 82-13.9L82-13.9 82 0 75 0 74.4-2.4 74.2-2.4Q72.7-1.05 71.02-0.23 69.35 0.6 67.3 0.6ZM70.3-6L70.3-6Q71.35-6 72.02-6.48 72.7-6.95 73.4-7.7L73.4-7.7 73.4-11.1Q70.3-10.65 69.15-9.75 68-8.85 68-7.8L68-7.8Q68-6 70.3-6ZM95.29 0.6L95.29 0.6Q93.09 0.6 91.62-0.08 90.14-0.75 89.24-2 88.34-3.25 87.97-4.98 87.59-6.7 87.59-8.8L87.59-8.8 87.59-34.8 96.19-34.8 96.19-8.5Q96.19-7.2 96.67-6.75 97.14-6.3 97.59-6.3L97.59-6.3Q97.84-6.3 98.02-6.3 98.19-6.3 98.49-6.4L98.49-6.4 99.49-0.1Q98.79 0.2 97.77 0.4 96.74 0.6 95.29 0.6ZM110.19 0.6L110.19 0.6Q107.79 0.6 105.12-0.35 102.44-1.3 100.49-2.9L100.49-2.9 104.29-8.2Q107.69-5.7 110.39-5.7L110.39-5.7Q111.74-5.7 112.32-6.08 112.89-6.45 112.89-7.2L112.89-7.2Q112.89-7.7 112.49-8.08 112.09-8.45 111.42-8.78 110.74-9.1 109.89-9.4 109.04-9.7 108.09-10.1L108.09-10.1Q106.99-10.55 105.87-11.18 104.74-11.8 103.84-12.7 102.94-13.6 102.37-14.78 101.79-15.95 101.79-17.5L101.79-17.5Q101.79-19.35 102.52-20.85 103.24-22.35 104.54-23.4 105.84-24.45 107.67-25.03 109.49-25.6 111.69-25.6L111.69-25.6Q114.79-25.6 117.02-24.58 119.24-23.55 120.89-22.3L120.89-22.3 117.09-17.2Q115.74-18.2 114.44-18.75 113.14-19.3 111.99-19.3L111.99-19.3Q109.79-19.3 109.79-17.9L109.79-17.9Q109.79-17.4 110.17-17.05 110.54-16.7 111.19-16.4 111.84-16.1 112.69-15.83 113.54-15.55 114.49-15.2L114.49-15.2Q115.59-14.8 116.74-14.2 117.89-13.6 118.82-12.73 119.74-11.85 120.32-10.63 120.89-9.4 120.89-7.7L120.89-7.7Q120.89-5.95 120.19-4.42 119.49-2.9 118.14-1.78 116.79-0.65 114.79-0.03 112.79 0.6 110.19 0.6ZM135.89 0L125.79 0 125.79-32.5 135.39-32.5Q139.09-32.5 142.16-31.6 145.24-30.7 147.44-28.75 149.64-26.8 150.86-23.75 152.09-20.7 152.09-16.4L152.09-16.4Q152.09-12.1 150.89-9 149.69-5.9 147.51-3.9 145.34-1.9 142.36-0.95 139.39 0 135.89 0L135.89 0ZM134.39-25.6L134.39-6.9 134.89-6.9Q136.64-6.9 138.19-7.33 139.74-7.75 140.86-8.8 141.99-9.85 142.64-11.7 143.29-13.55 143.29-16.4L143.29-16.4Q143.29-19.25 142.64-21.05 141.99-22.85 140.86-23.85 139.74-24.85 138.19-25.23 136.64-25.6 134.89-25.6L134.89-25.6 134.39-25.6ZM165.79 0L157.19 0 157.19-25 164.19-25 164.79-20.7 164.99-20.7Q166.39-23.25 168.31-24.43 170.24-25.6 172.09-25.6L172.09-25.6Q173.24-25.6 173.94-25.48 174.64-25.35 175.19-25.1L175.19-25.1 173.79-17.7Q173.09-17.85 172.46-17.98 171.84-18.1 170.99-18.1L170.99-18.1Q169.64-18.1 168.16-17.18 166.69-16.25 165.79-13.9L165.79-13.9 165.79 0ZM183.08 0.6L183.08 0.6Q181.33 0.6 179.93-0.03 178.53-0.65 177.56-1.7 176.58-2.75 176.08-4.15 175.58-5.55 175.58-7.1L175.58-7.1Q175.58-11 178.78-13.23 181.98-15.45 189.18-16.2L189.18-16.2Q188.88-18.8 185.68-18.8L185.68-18.8Q184.33-18.8 182.83-18.28 181.33-17.75 179.38-16.7L179.38-16.7 176.38-22.3Q179.03-23.9 181.73-24.75 184.43-25.6 187.38-25.6L187.38-25.6Q192.23-25.6 195.01-22.83 197.78-20.05 197.78-13.9L197.78-13.9 197.78 0 190.78 0 190.18-2.4 189.98-2.4Q188.48-1.05 186.81-0.23 185.13 0.6 183.08 0.6ZM186.08-6L186.08-6Q187.13-6 187.81-6.48 188.48-6.95 189.18-7.7L189.18-7.7 189.18-11.1Q186.08-10.65 184.93-9.75 183.78-8.85 183.78-7.8L183.78-7.8Q183.78-6 186.08-6ZM207.08 9.4L207.08 9.4Q205.78 9.4 204.96 9.28 204.13 9.15 203.28 8.9L203.28 8.9 204.78 2.4Q205.13 2.5 205.56 2.6 205.98 2.7 206.38 2.7L206.38 2.7Q208.13 2.7 209.01 2.02 209.88 1.35 210.28 0.2L210.28 0.2 210.58-0.9 201.08-25 209.68-25 212.68-15.4Q213.23-13.65 213.63-11.93 214.03-10.2 214.48-8.3L214.48-8.3 214.68-8.3Q215.08-10.1 215.46-11.85 215.83-13.6 216.28-15.4L216.28-15.4 218.78-25 226.98-25 218.58-0.4Q217.58 2.15 216.56 4 215.53 5.85 214.18 7.05 212.83 8.25 211.11 8.83 209.38 9.4 207.08 9.4Z" opacity="1" transform="matrix(1,0,0,1,0,0)" fill="#5ac5e5" class="wordmark-text-0" data-fill-palette-color="primary" id="text-0"></path></svg></g></svg></g></svg></g></svg></g><g></g></svg></g></svg></g></svg></g><g mask="url(#89ebc118-a8cf-4442-8397-b903e57c0168)"><g transform="matrix(2.4519997187461544, 0, 0, 2.4519997187461544, 118.32378677014961, 0.9999999999999858)"><svg xmlns="http://www.w3.org/2000/svg" xmlns:xlink="http://www.w3.org/1999/xlink" version="1.1" x="0" y="0" viewBox="17.604 0 64.7930035411836 100.00001147038654" enable-background="new 0 0 100 100" xml:space="preserve" id="none" width="64.7930035411836" height="100.00001147038654" class="icon-none" data-fill-palette-color="accent"><g fill="#b0a1e8" data-fill-palette-color="accent"><path d="M71.977 74.531C68.433 72.021 68.14 70.693 68.14 68.78S67.549 65.089 66.075 63.614C64.605 62.139 62.237 57.413 62.237 45.457S65.782 26.273 65.782 26.273H74.194S76.552 5.902 78.618 0.294H67.7S66.963 5.609 66.963 8.561H62.534V0H52.646V8.415H47.27V0H37.378V8.562H32.954C32.954 5.61 32.222 0.295 32.222 0.295H21.294C23.364 5.903 25.723 26.274 25.723 26.274H34.136S37.681 33.503 37.681 45.458 35.318 62.14 33.843 63.615 31.773 66.867 31.773 68.781C31.773 70.694 31.48 72.022 27.935 74.532 24.4 77.042 20.704 79.405 20.704 83.389S24.547 87.676 26.168 87.676H73.75C75.371 87.676 79.214 87.373 79.214 83.389S75.517 77.041 71.977 74.531" fill="#b0a1e8" data-fill-palette-color="accent"></path><g fill="#b0a1e8" data-fill-palette-color="accent"><path d="M21.148 100A3.54 3.54 0 0 1 17.604 96.465 3.545 3.545 0 0 1 21.148 92.92H78.852A3.54 3.54 0 0 1 82.397 96.465 3.536 3.536 0 0 1 78.852 100z" fill="#b0a1e8" data-fill-palette-color="accent"></path></g></g></svg></g></g></svg></g><defs></defs></svg><rect width="395.52" height="247.2" fill="none" stroke="none" visibility="hidden"></rect></g></svg></g></svg>